HIERARCHY
ROOT Hips
{
    OFFSET   0.000000   0.000000   0.000000
    CHANNELS 6 Xposition Yposition Zposition Zrotation Xrotation Yrotation
    JOINT Chest
    {
        OFFSET   0.000000   8.007230   0.000000
        CHANNELS 3 Zrotation Xrotation Yrotation
        JOINT Chest2
        {
            OFFSET   0.000000  22.077100   0.000000
            CHANNELS 3 Zrotation Xrotation Yrotation
            JOINT Neck
            {
                OFFSET   0.000000  23.254800  -0.000021
                CHANNELS 3 Zrotation Xrotation Yrotation
                JOINT Head
                {
                    OFFSET   0.000000  14.370000   1.956610
                    CHANNELS 3 Zrotation Xrotation Yrotation
                    End Site
                    {
                        OFFSET   0.000000  19.566000   0.000000
                    }
                }
            }
            JOINT LeftCollar
            {
                OFFSET   3.911900  19.017000  -0.467063
                CHANNELS 3 Zrotation Xrotation Yrotation
                JOINT LeftShoulder
                {
                    OFFSET  10.383700   0.000000   0.000000
                    CHANNELS 3 Zrotation Xrotation Yrotation
                    JOINT LeftElbow
                    {
                        OFFSET  26.662100   0.001529   0.000325
                        CHANNELS 3 Zrotation Xrotation Yrotation
                        JOINT LeftWrist
                        {
                            OFFSET  28.869000  -0.000011  -0.000096
                            CHANNELS 3 Zrotation Xrotation Yrotation
                            JOINT LeftFinger0
                            {
                                OFFSET   2.044650  -2.323460   3.252850
                                CHANNELS 3 Zrotation Xrotation Yrotation
                                JOINT LeftFinger01
                                {
                                    OFFSET   3.088130   0.000000   0.000000
                                    CHANNELS 3 Zrotation Xrotation Yrotation
                                    JOINT LeftFinger02
                                    {
                                        OFFSET   2.639460   0.000000   0.000000
                                        CHANNELS 3 Zrotation Xrotation Yrotation
                                        End Site
                                        {
                                            OFFSET   2.582190   0.000000   0.000000
                                        }
                                    }
                                }
                            }
                            JOINT LeftFinger1
                            {
                                OFFSET   8.364480   0.000000   3.252850
                                CHANNELS 3 Zrotation Xrotation Yrotation
                                JOINT LeftFinger11
                                {
                                    OFFSET   4.646930   0.000000   0.000000
                                    CHANNELS 3 Zrotation Xrotation Yrotation
                                    JOINT LeftFinger12
                                    {
                                        OFFSET   2.323460   0.000000   0.000000
                                        CHANNELS 3 Zrotation Xrotation Yrotation
                                        End Site
                                        {
                                            OFFSET   2.273050   0.000000   0.000000
                                        }
                                    }
                                }
                            }
                            JOINT LeftFinger2
                            {
                                OFFSET   8.364480   0.000016   1.078090
                                CHANNELS 3 Zrotation Xrotation Yrotation
                                JOINT LeftFinger21
                                {
                                    OFFSET   5.111620   0.000000   0.000000
                                    CHANNELS 3 Zrotation Xrotation Yrotation
                                    JOINT LeftFinger22
                                    {
                                        OFFSET   2.788160   0.000017   0.000000
                                        CHANNELS 3 Zrotation Xrotation Yrotation
                                        End Site
                                        {
                                            OFFSET   2.727660   0.000000   0.000000
                                        }
                                    }
                                }
                            }
                            JOINT LeftFinger3
                            {
                                OFFSET   7.899780   0.000015  -1.078090
                                CHANNELS 3 Zrotation Xrotation Yrotation
                                JOINT LeftFinger31
                                {
                                    OFFSET   4.646920   0.000000   0.000000
                                    CHANNELS 3 Zrotation Xrotation Yrotation
                                    JOINT LeftFinger32
                                    {
                                        OFFSET   2.323470   0.000000   0.000000
                                        CHANNELS 3 Zrotation Xrotation Yrotation
                                        End Site
                                        {
                                            OFFSET   2.273050   0.000000   0.000000
                                        }
                                    }
                                }
                            }
                            JOINT LeftFinger4
                            {
                                OFFSET   7.435090   0.000000  -3.252850
                                CHANNELS 3 Zrotation Xrotation Yrotation
                                JOINT LeftFinger41
                                {
                                    OFFSET   3.717550   0.000000   0.000000
                                    CHANNELS 3 Zrotation Xrotation Yrotation
                                    JOINT LeftFinger42
                                    {
                                        OFFSET   1.858760   0.000000   0.000000
                                        CHANNELS 3 Zrotation Xrotation Yrotation
                                        End Site
                                        {
                                            OFFSET   1.818440   0.000000   0.000000
                                        }
                                    }
                                }
                            }
                        }
                    }
                }
            }
            JOINT RightCollar
            {
                OFFSET  -3.911900  19.017000  -0.467062
                CHANNELS 3 Zrotation Xrotation Yrotation
                JOINT RightShoulder
                {
                    OFFSET -10.383700   0.000015   0.000000
                    CHANNELS 3 Zrotation Xrotation Yrotation
                    JOINT RightElbow
                    {
                        OFFSET -26.662100   0.001341   0.000385
                        CHANNELS 3 Zrotation Xrotation Yrotation
                        JOINT RightWrist
                        {
                            OFFSET -28.869000   0.000025  -0.000080
                            CHANNELS 3 Zrotation Xrotation Yrotation
                            JOINT RightFinger0
                            {
                                OFFSET  -2.044650  -2.323490   3.252850
                                CHANNELS 3 Zrotation Xrotation Yrotation
                                JOINT RightFinger01
                                {
                                    OFFSET  -3.088130   0.000000   0.000000
                                    CHANNELS 3 Zrotation Xrotation Yrotation
                                    JOINT RightFinger02
                                    {
                                        OFFSET  -2.639460   0.000000   0.000000
                                        CHANNELS 3 Zrotation Xrotation Yrotation
                                        End Site
                                        {
                                            OFFSET  -2.582190   0.000000   0.000000
                                        }
                                    }
                                }
                            }
                            JOINT RightFinger1
                            {
                                OFFSET  -8.364480   0.000000   3.252850
                                CHANNELS 3 Zrotation Xrotation Yrotation
                                JOINT RightFinger11
                                {
                                    OFFSET  -4.646930   0.000000   0.000000
                                    CHANNELS 3 Zrotation Xrotation Yrotation
                                    JOINT RightFinger12
                                    {
                                        OFFSET  -2.323470   0.000000   0.000000
                                        CHANNELS 3 Zrotation Xrotation Yrotation
                                        End Site
                                        {
                                            OFFSET  -2.273050   0.000000   0.000000
                                        }
                                    }
                                }
                            }
                            JOINT RightFinger2
                            {
                                OFFSET  -8.364480   0.000000   1.078090
                                CHANNELS 3 Zrotation Xrotation Yrotation
                                JOINT RightFinger21
                                {
                                    OFFSET  -5.111610   0.000000   0.000000
                                    CHANNELS 3 Zrotation Xrotation Yrotation
                                    JOINT RightFinger22
                                    {
                                        OFFSET  -2.788160   0.000000   0.000000
                                        CHANNELS 3 Zrotation Xrotation Yrotation
                                        End Site
                                        {
                                            OFFSET  -2.727660   0.000000   0.000000
                                        }
                                    }
                                }
                            }
                            JOINT RightFinger3
                            {
                                OFFSET  -7.899780   0.000000  -1.078090
                                CHANNELS 3 Zrotation Xrotation Yrotation
                                JOINT RightFinger31
                                {
                                    OFFSET  -4.646920   0.000000   0.000000
                                    CHANNELS 3 Zrotation Xrotation Yrotation
                                    JOINT RightFinger32
                                    {
                                        OFFSET  -2.323470   0.000000   0.000000
                                        CHANNELS 3 Zrotation Xrotation Yrotation
                                        End Site
                                        {
                                            OFFSET  -2.273050   0.000000   0.000000
                                        }
                                    }
                                }
                            }
                            JOINT RightFinger4
                            {
                                OFFSET  -7.435090   0.000000  -3.252850
                                CHANNELS 3 Zrotation Xrotation Yrotation
                                JOINT RightFinger41
                                {
                                    OFFSET  -3.717550   0.000000   0.000000
                                    CHANNELS 3 Zrotation Xrotation Yrotation
                                    JOINT RightFinger42
                                    {
                                        OFFSET  -1.858770   0.000000   0.000000
                                        CHANNELS 3 Zrotation Xrotation Yrotation
                                        End Site
                                        {
                                            OFFSET  -1.818440   0.000000   0.000000
                                        }
                                    }
                                }
                            }
                        }
                    }
                }
            }
        }
    }
    JOINT LeftHip
    {
        OFFSET   9.783010   0.000000   0.000000
        CHANNELS 3 Zrotation Xrotation Yrotation
        JOINT LeftKnee
        {
            OFFSET   0.000070 -41.789100   0.000028
            CHANNELS 3 Zrotation Xrotation Yrotation
            JOINT LeftAnkle
            {
                OFFSET   0.000087 -41.133200  -0.000100
                CHANNELS 3 Zrotation Xrotation Yrotation
                JOINT LeftToe
                {
                    OFFSET   0.000000  -6.358960  14.674500
                    CHANNELS 3 Zrotation Xrotation Yrotation
                    End Site
                    {
                        OFFSET   0.000000   0.000000   3.913200
                    }
                }
            }
        }
    }
    JOINT RightHip
    {
        OFFSET  -9.783020   0.000000   0.000000
        CHANNELS 3 Zrotation Xrotation Yrotation
        JOINT RightKnee
        {
            OFFSET   0.000044 -41.789100  -0.000870
            CHANNELS 3 Zrotation Xrotation Yrotation
            JOINT RightAnkle
            {
                OFFSET  -0.000090 -41.133200  -0.000245
                CHANNELS 3 Zrotation Xrotation Yrotation
                JOINT RightToe
                {
                    OFFSET   0.000000  -6.358960  14.674500
                    CHANNELS 3 Zrotation Xrotation Yrotation
                    End Site
                    {
                        OFFSET   0.000000   0.000000   3.913200
                    }
                }
            }
        }
    }
}
MOTION
Frames: 5
Frame Time:   0.016667
 -0.402074  89.543400  -2.677520  -1.091710  -1.922920   2.959950   0.619428   2.098870  -0.583915   1.261520   4.191190  -1.191710  -0.962026   0.253477   0.002569  -1.580500   0.513590   2.223520  -2.940560   2.837780   6.355600 -79.010400   5.865040   5.750050   0.145196   2.442120 -16.199500  10.345300  -7.747570  -0.552869  37.034300  28.811400 -47.681400 -33.836200   0.000000   0.000084 -11.918100   0.000000  -0.001454 -35.350300   0.251177  -0.353942 -28.915600  -0.009024   0.000462 -20.240800   0.000685   0.007357 -28.387200  -3.983090   7.332020 -37.957300  -0.002373  -0.000940 -25.279500   0.002612  -0.001259 -28.442400  -3.989200   7.328300 -38.880800  -0.001232   0.001509 -25.894600   0.000179   0.001215 -36.509900  -4.982650   6.680000 -55.200000  -0.006423  -0.002559 -36.753100  -0.000677  -0.002639   9.236310   4.615860   5.253480  69.739900  -5.956100  -0.808698   4.145050  -5.468660   9.479830 -19.208400   4.052600   2.248880 -40.502400  38.173700  78.460600  28.759100  -0.001758  -0.008658   9.379530  -0.001533  -0.003944  29.772300   0.319882   0.559154  24.360400  -0.001361  -0.000598  17.052300  -0.001055  -0.000134  28.639900   0.308840   0.565337  38.122500   0.002177  -0.005758  25.389500  -0.000661  -0.004135  28.642500  -2.031920  -3.714020  39.263100  -0.000929  -0.000483  26.149200  -0.000860  -0.000000  35.596900  -2.466820  -3.440800  53.506600   0.001059  -0.004013  35.635400  -0.001032  -0.002563   2.654420   2.907840  -3.223840   0.185470   1.392870   9.650030  -2.007800  -3.268440  -0.423740  -0.000000   0.000000  -0.000000   0.837670   3.158130  -6.235520  -0.650397   2.659170 -11.548500   1.151940  -3.845330   0.511785   0.000000   0.000000   0.000000
 -0.421607  89.543400  -2.708270  -1.088750  -1.958360   3.002350   0.619542   2.131340  -0.577122   1.261910   4.256200  -1.178510  -0.970091   0.265925   0.002578  -1.593960   0.538844   2.206770  -2.945800   2.838100   6.363570 -79.017200   5.928410   5.736110   0.135682   2.408500 -16.195200  10.349800  -7.761180  -0.573049  37.007700  28.754700 -47.613400 -33.847600   0.000000   0.000088 -11.923900   0.000000  -0.001463 -35.351700   0.251177  -0.353942 -28.919000  -0.009038   0.000461 -20.243200   0.000693   0.007348 -28.387500  -3.983130   7.327790 -38.000600  -0.002375  -0.000944 -25.308400   0.002603  -0.001261 -28.442600  -3.989270   7.324270 -38.881400  -0.001224   0.001522 -25.895000   0.000169   0.001225 -36.504400  -4.982660   6.679880 -55.192500  -0.006439  -0.002560 -36.753100  -0.000681  -0.002641   9.235490   4.614460   5.259730  69.725200  -5.924200  -0.765987   4.155540  -5.510170   9.478920 -19.207400   4.037600   2.238650 -40.513600  38.189100  78.464000  28.765500  -0.001776  -0.008661   9.382730  -0.001538  -0.003950  29.764400   0.316197   0.552856  24.354000  -0.001344  -0.000616  17.047800  -0.001048  -0.000148  28.640000   0.305336   0.558935  38.111600   0.002216  -0.005810  25.382200  -0.000654  -0.004178  28.643100  -2.024640  -3.700690  39.262500  -0.000911  -0.000508  26.148900  -0.000843  -0.000031  35.583900  -2.457170  -3.429020  53.486300   0.001067  -0.004039  35.621800  -0.001038  -0.002580   2.661600   2.929880  -3.190240   0.201968   1.368020   9.614130  -2.022720  -3.231820  -0.463644  -0.000000   0.000000  -0.000000   0.849397   3.157560  -6.232330  -0.642202   2.698630 -11.575200   1.152300  -3.869220   0.512660   0.000000   0.000000   0.000000
 -0.454786  89.543300  -2.760110  -1.083270  -2.019640   3.075770   0.619671   2.188750  -0.561959   1.262190   4.371160  -1.148860  -0.982419   0.283128   0.002600  -1.614030   0.573699   2.167750  -2.952120   2.838400   6.372980 -79.030200   6.037650   5.707190   0.118210   2.347480 -16.190600  10.356800  -7.785370  -0.610787  36.967900  28.687100 -47.539200 -33.864200   0.000000   0.000099 -11.932100   0.000000  -0.001488 -35.361100   0.251177  -0.353942 -28.932400  -0.009075   0.000460 -20.252700   0.000713   0.007326 -28.387900  -3.983200   7.320840 -38.071900  -0.002378  -0.000952 -25.355900   0.002580  -0.001266 -28.443100  -3.989400   7.317630 -38.885300  -0.001203   0.001557 -25.897600   0.000145   0.001251 -36.499000  -4.982680   6.679770 -55.184900  -0.006484  -0.002560 -36.753100  -0.000692  -0.002646   9.232760   4.604950   5.265930  69.699700  -5.871100  -0.691996   4.173270  -5.577950   9.468960 -19.207900   4.022630   2.220020 -40.533200  38.216100  78.470000  28.784800  -0.001815  -0.008665   9.392400  -0.001554  -0.003956  29.755600   0.308201   0.539068  24.346700  -0.001303  -0.000658  17.042700  -0.001030  -0.000185  28.640300   0.297685   0.544947  38.095800   0.002314  -0.005940  25.371800  -0.000637  -0.004284  28.643800  -2.017360  -3.687360  39.261900  -0.000865  -0.000572  26.148500  -0.000802  -0.000095  35.570900  -2.447510  -3.417250  53.465900   0.001089  -0.004104  35.608300  -0.001052  -0.002623   2.673910   2.963980  -3.138220   0.226187   1.342550   9.553030  -2.048090  -3.175220  -0.527840   0.000000   0.000000   0.000000   0.871201   3.153490  -6.223930  -0.633716   2.767930 -11.611200   1.152770  -3.905770   0.513544  -0.000000   0.000000   0.000000
 -0.482247  89.543200  -2.802990  -1.076420  -2.073660   3.139980   0.619743   2.242060  -0.541616   1.262210   4.478020  -1.108770  -0.991408   0.288576   0.002629  -1.627160   0.584606   2.112490  -2.953090   2.838310   6.374650 -79.044400   6.135000   5.672910   0.098649   2.288410 -16.207100  10.362400  -7.814060  -0.650136  36.954200  28.672300 -47.536800 -33.873100   0.000044   0.000113 -11.936200   0.000000  -0.001535 -35.394700   0.257506  -0.362441 -28.961600  -0.009130   0.000454 -20.273100   0.000743   0.007293 -28.388400  -3.983270   7.314140 -38.140400  -0.002382  -0.000963 -25.401600   0.002543  -0.001274 -28.443500  -3.989560   7.311170 -38.903700  -0.001168   0.001614 -25.909800   0.000107   0.001293 -36.504800  -4.982710   6.680020 -55.194200  -0.006553  -0.002555 -36.759300  -0.000706  -0.002653   9.228260   4.578500   5.255710  69.676900  -5.838950  -0.626081   4.186400  -5.623480   9.442680 -19.225500   4.031300   2.201910 -40.539600  38.247100  78.475400  28.822700  -0.001861  -0.008664   9.411340  -0.001588  -0.003940  29.754600   0.296521   0.518715  24.345700  -0.001240  -0.000722  17.042000  -0.001001  -0.000242  28.640600   0.286424   0.524346  38.087500   0.002461  -0.006139  25.366300  -0.000610  -0.004447  28.644800  -2.024100  -3.699580  39.279600  -0.000796  -0.000669  26.160300  -0.000740  -0.000176  35.571800  -2.455700  -3.428530  53.468100   0.001121  -0.004202  35.609800  -0.001074  -0.002689   2.684960   2.986000  -3.103400   0.241395   1.341920   9.500910  -2.069630  -3.139620  -0.575000  -0.000000   0.000000   0.000000   0.893949   3.135150  -6.208330  -0.638927   2.836290 -11.621400   1.142910  -3.928680   0.468234   0.000000   0.000000  -0.000000
 -0.511248  89.543100  -2.846330  -1.065950  -2.129710   3.208080   0.619536   2.298320  -0.516963   1.261340   4.590820  -1.060070  -0.996134   0.291512   0.002663  -1.633480   0.590397   2.045340  -2.953490   2.837730   6.374880 -79.060300   6.232060   5.630120   0.075347   2.222450 -16.239800  10.364600  -7.832140  -0.693322  36.952400  28.666200 -47.545100 -33.877000   0.000114   0.000132 -11.937800   0.000000  -0.001587 -35.438600   0.269308  -0.378370 -28.995900  -0.009199   0.000444 -20.297100   0.000781   0.007251 -28.388700  -3.983310   7.310180 -38.181000  -0.002388  -0.000977 -25.428600   0.002496  -0.001284 -28.443700  -3.989710   7.307340 -38.918700  -0.001123   0.001687 -25.919800   0.000059   0.001347 -36.514100  -4.982750   6.680550 -55.208800  -0.006643  -0.002546 -36.769100  -0.000725  -0.002661   9.223720   4.534800   5.233510  69.654400  -5.786550  -0.558434   4.201560  -5.679130   9.393020 -19.251500   4.055330   2.181710 -40.530300  38.267200  78.481300  28.862500  -0.001916  -0.008658   9.431260  -0.001625  -0.003925  29.754600   0.285392   0.499229  24.345600  -0.001162  -0.000800  17.041900  -0.000966  -0.000311  28.640900   0.275660   0.504645  38.084000   0.002642  -0.006384  25.364000  -0.000577  -0.004647  28.646500  -2.036170  -3.721390  39.320900  -0.000711  -0.000788  26.187700  -0.000664  -0.000271  35.581500  -2.470830  -3.448330  53.483700   0.001160  -0.004324  35.620100  -0.001101  -0.002770   2.695790   3.004340  -3.076460   0.255296   1.342000   9.448320  -2.091720  -3.108600  -0.618096   0.000000   0.000000   0.000000   0.917230   3.120330  -6.193860  -0.648368   2.897990 -11.624600   1.123100  -3.946610   0.391083  -0.000000   0.000000  -0.000000
